<?xml version="1.0" encoding="utf-8"?>
<!-- Generator: Adobe Illustrator 16.0.0, SVG Export Plug-In . SVG Version: 6.00 Build 0)  -->
<!DOCTYPE svg PUBLIC "-//W3C//DTD SVG 1.1//EN" "http://www.w3.org/Graphics/SVG/1.1/DTD/svg11.dtd">
<svg version="1.1" id="Layer_1" xmlns="http://www.w3.org/2000/svg" xmlns:xlink="http://www.w3.org/1999/xlink" x="0px" y="0px"
	 width="1000px" height="215.477px" viewBox="-113 -16.738 1000 215.477" enable-background="new -113 -16.738 1000 215.477"
	 xml:space="preserve">
<g>
	<path d="M-8.873-16.738v201.067l45.43,14.409V30.165c0-7.944,3.538-13.229,9.202-11.39c7.405,2.067,8.842,9.386,8.842,17.23v67.32
		c28.268,13.719,50.542,0,50.542-36.205c0-36.956-13.068-53.433-51.458-66.694C38.552-4.628,10.482-13.161-8.873-16.738z"/>
	<path d="M45.207,169.358l72.97-26.025c8.25-3.054,9.53-7.223,2.854-9.421c-6.782-2.231-18.899-1.606-27.25,1.411l-48.574,17.166
		v-27.407l2.784-0.918c0,0,14.05-4.989,33.831-7.123c19.714-2.166,43.922,0.295,62.957,7.452
		c21.416,6.826,23.809,16.771,18.404,23.697c-5.502,6.858-18.833,11.816-18.833,11.816l-99.142,35.681V169.358z"/>
	<path d="M-92.097,166.574c-21.977-6.138-25.611-19.103-15.625-26.586c9.237-6.828,24.993-11.979,24.993-11.979l65.08-23.239v26.455
		l-46.803,16.806c-8.29,2.985-9.53,7.154-2.849,9.351c6.777,2.267,18.864,1.675,27.154-1.411l22.499-8.137v23.629
		c-1.443,0.232-3.078,0.496-4.551,0.759C-44.606,175.96-68.516,174.417-92.097,166.574z"/>
	<path d="M147.786,177.205c6.387,0,10.71,4.762,10.71,10.767c0,6.042-4.323,10.767-10.71,10.767
		c-6.383,0-10.806-4.725-10.806-10.767C136.98,181.967,141.368,177.205,147.786,177.205z M147.786,197.16
		c5.436,0,9.04-4.103,9.04-9.188c0-5.023-3.604-9.127-9.04-9.127c-5.537,0-9.075,4.104-9.075,9.127
		C138.676,193.058,142.249,197.16,147.786,197.16z M143.529,181.703h4.915c2.288,0,3.954,0.657,3.954,3.248
		c0,1.478-0.71,2.561-2.289,3.021v0.062c0.82,0.202,1.377,0.824,1.776,2.271c0.386,1.377,0.846,2.728,1.206,3.906h-2.289
		c-0.298-0.92-0.724-2.529-0.951-3.38c-0.364-1.446-0.754-1.907-2.652-1.907h-1.478v5.287h-2.227v-12.507H143.529z M145.752,187.314
		h1.968c1.569,0,2.521-0.623,2.521-2.068c0-1.706-1.183-1.938-2.389-1.938h-2.131v4.007H145.752z"/>
	<path d="M645.737,24.519h-85.521c-24.796,0-36.947,15.328-36.947,35.251v60.622c0,12.341-5.826,21.235-18.176,21.235h-80.379
		c-0.491,0-0.921,0.396-0.921,0.919v12.179c0,0.49,0.43,0.921,0.921,0.921h89.682c24.791,0,36.979-15.298,36.979-35.221V59.77
		c0-12.341,5.826-21.235,18.18-21.235h76.214c0.521,0,0.917-0.428,0.917-0.921V25.437C646.617,24.945,646.223,24.519,645.737,24.519
		z"/>
	<path d="M393.079,24.554H238.353c-0.526,0-0.916,0.427-0.916,0.918v12.176c0,0.526,0.425,0.921,0.916,0.921h145.423
		c12.315,0,18.171,8.896,18.171,21.236s-5.826,21.235-18.171,21.235H268.747c-17.852,0-31.31,15.032-31.31,34.988v38.731
		c0,0.526,0.425,0.92,0.916,0.92h26.233c0.526,0,0.917-0.43,0.917-0.92v-38.731c0-12.341,7.11-20.973,17.294-20.973h110.282
		c24.795,0,36.942-15.263,36.942-35.219C430.022,39.882,417.905,24.554,393.079,24.554z"/>
	<path d="M848.741,127.609l-26.237-0.032c-0.521,0-0.947-0.428-0.947-0.919V38.466c0-13.558-9.368-17.987-22.507-9.847
		l-157.667,97.022c-6.199,3.808-8.259,8.105-6.787,11.291c1.28,2.757,4.687,4.659,11.534,4.659h146.44
		c0.391,0.033,0.719,0.329,0.815,0.691v12.371c0,0.526,0.426,0.956,0.916,0.956h26.339c0.491,0,0.916-0.43,0.916-0.956v-12.11
		c0-0.523,0.426-0.952,0.916-0.952h26.233c0.526,0,0.951-0.427,0.951-0.918V128.53C849.693,128.037,849.268,127.609,848.741,127.609
		z M793.456,126.626c0,0.523-0.43,0.951-0.92,0.951H669.773c-0.977,0-1.503-0.264-1.666-0.623c-0.131-0.592,0.163-0.984,0.886-1.51
		l122.167-75.358c0.854-0.526,2.262-0.429,2.262,1.246v75.294H793.456z"/>
	<path d="M865.015,142.743h-4.318v-1.478h10.285v1.478h-4.23v12.902h-1.736V142.743z"/>
	<path d="M879.955,154.067h0.035l4.024-12.769H887v14.347h-1.675v-13.034h-0.03l-4.262,13.034h-2.192l-4.129-13.034h-0.031v13.034
		h-1.635v-14.38h2.945L879.955,154.067z"/>
</g>
</svg>
