<?xml version="1.0" encoding="UTF-8" standalone="no"?>
<svg
   xmlns:dc="http://purl.org/dc/elements/1.1/"
   xmlns:cc="http://creativecommons.org/ns#"
   xmlns:rdf="http://www.w3.org/1999/02/22-rdf-syntax-ns#"
   xmlns:svg="http://www.w3.org/2000/svg"
   xmlns="http://www.w3.org/2000/svg"
   xmlns:sodipodi="http://sodipodi.sourceforge.net/DTD/sodipodi-0.dtd"
   xmlns:inkscape="http://www.inkscape.org/namespaces/inkscape"
   inkscape:version="1.0 (4035a4fb49, 2020-05-01)"
   sodipodi:docname="platform-ps4.svg"
   xml:space="preserve"
   enable-background="new -113 -16.738 1000 215.477"
   viewBox="-113 -16.738 1000 215.477"
   height="215.477px"
   width="1000px"
   y="0px"
   x="0px"
   id="Layer_1"
   version="1.1"><metadata
   id="metadata27"><rdf:RDF><cc:Work
       rdf:about=""><dc:format>image/svg+xml</dc:format><dc:type
         rdf:resource="http://purl.org/dc/dcmitype/StillImage" /></cc:Work></rdf:RDF></metadata><defs
   id="defs25">
	
	
	
	
	
	
	
	
	
</defs><sodipodi:namedview
   inkscape:current-layer="Layer_1"
   inkscape:window-maximized="1"
   inkscape:window-y="-8"
   inkscape:window-x="1912"
   inkscape:cy="107.7385"
   inkscape:cx="500"
   inkscape:zoom="1.049"
   showgrid="false"
   id="namedview23"
   inkscape:window-height="1017"
   inkscape:window-width="1920"
   inkscape:pageshadow="2"
   inkscape:pageopacity="0"
   guidetolerance="10"
   gridtolerance="10"
   objecttolerance="10"
   borderopacity="1"
   bordercolor="#666666"
   pagecolor="#ffffff" />
<path
   style="fill:#0070d1;fill-opacity:1"
   d="m -8.873,-16.738 v 201.067 l 45.43,14.409 V 30.165 c 0,-7.944 3.538,-13.229 9.202,-11.39 7.405,2.067 8.842,9.386 8.842,17.23 v 67.32 c 28.268,13.719 50.542,0 50.542,-36.205 C 105.143,30.164 92.075,13.687 53.685,0.426 38.552,-4.628 10.482,-13.161 -8.873,-16.738 Z"
   id="path2" /><path
   style="fill:#0070d1;fill-opacity:1"
   d="m 45.207,169.358 72.97,-26.025 c 8.25,-3.054 9.53,-7.223 2.854,-9.421 -6.782,-2.231 -18.899,-1.606 -27.25,1.411 l -48.574,17.166 v -27.407 l 2.784,-0.918 c 0,0 14.05,-4.989 33.831,-7.123 19.714,-2.166 43.922,0.295 62.957,7.452 21.416,6.826 23.809,16.771 18.404,23.697 -5.502,6.858 -18.833,11.816 -18.833,11.816 l -99.142,35.681 v -26.329 z"
   id="path4" /><path
   style="fill:#0070d1;fill-opacity:1"
   d="m -92.097,166.574 c -21.977,-6.138 -25.611,-19.103 -15.625,-26.586 9.237,-6.828 24.993,-11.979 24.993,-11.979 l 65.08,-23.239 v 26.455 l -46.803,16.806 c -8.29,2.985 -9.53,7.154 -2.849,9.351 6.777,2.267 18.864,1.675 27.154,-1.411 l 22.499,-8.137 v 23.629 c -1.443,0.232 -3.078,0.496 -4.551,0.759 -22.407,3.738 -46.317,2.195 -69.898,-5.648 z"
   id="path6" /><path
   style="fill:#0070d1;fill-opacity:1"
   d="m 147.786,177.205 c 6.387,0 10.71,4.762 10.71,10.767 0,6.042 -4.323,10.767 -10.71,10.767 -6.383,0 -10.806,-4.725 -10.806,-10.767 0,-6.005 4.388,-10.767 10.806,-10.767 z m 0,19.955 c 5.436,0 9.04,-4.103 9.04,-9.188 0,-5.023 -3.604,-9.127 -9.04,-9.127 -5.537,0 -9.075,4.104 -9.075,9.127 -0.035,5.086 3.538,9.188 9.075,9.188 z m -4.257,-15.457 h 4.915 c 2.288,0 3.954,0.657 3.954,3.248 0,1.478 -0.71,2.561 -2.289,3.021 v 0.062 c 0.82,0.202 1.377,0.824 1.776,2.271 0.386,1.377 0.846,2.728 1.206,3.906 h -2.289 c -0.298,-0.92 -0.724,-2.529 -0.951,-3.38 -0.364,-1.446 -0.754,-1.907 -2.652,-1.907 h -1.478 v 5.287 h -2.227 v -12.507 h 0.035 z m 2.223,5.611 h 1.968 c 1.569,0 2.521,-0.623 2.521,-2.068 0,-1.706 -1.183,-1.938 -2.389,-1.938 h -2.131 v 4.007 h 0.031 z"
   id="path8" /><path
   style="fill:#0070d1;fill-opacity:1"
   d="m 645.737,24.519 h -85.521 c -24.796,0 -36.947,15.328 -36.947,35.251 v 60.622 c 0,12.341 -5.826,21.235 -18.176,21.235 h -80.379 c -0.491,0 -0.921,0.396 -0.921,0.919 v 12.179 c 0,0.49 0.43,0.921 0.921,0.921 h 89.682 c 24.791,0 36.979,-15.298 36.979,-35.221 V 59.77 c 0,-12.341 5.826,-21.235 18.18,-21.235 h 76.214 c 0.521,0 0.917,-0.428 0.917,-0.921 V 25.437 c -0.069,-0.492 -0.463,-0.918 -0.949,-0.918 z"
   id="path10" /><path
   style="fill:#0070d1;fill-opacity:1"
   d="M 393.079,24.554 H 238.353 c -0.526,0 -0.916,0.427 -0.916,0.918 v 12.176 c 0,0.526 0.425,0.921 0.916,0.921 h 145.423 c 12.315,0 18.171,8.896 18.171,21.236 0,12.34 -5.826,21.235 -18.171,21.235 H 268.747 c -17.852,0 -31.31,15.032 -31.31,34.988 v 38.731 c 0,0.526 0.425,0.92 0.916,0.92 h 26.233 c 0.526,0 0.917,-0.43 0.917,-0.92 v -38.731 c 0,-12.341 7.11,-20.973 17.294,-20.973 h 110.282 c 24.795,0 36.942,-15.263 36.942,-35.219 10e-4,-19.954 -12.116,-35.282 -36.942,-35.282 z"
   id="path12" /><path
   style="fill:#0070d1;fill-opacity:1"
   d="m 848.741,127.609 -26.237,-0.032 c -0.521,0 -0.947,-0.428 -0.947,-0.919 V 38.466 c 0,-13.558 -9.368,-17.987 -22.507,-9.847 l -157.667,97.022 c -6.199,3.808 -8.259,8.105 -6.787,11.291 1.28,2.757 4.687,4.659 11.534,4.659 h 146.44 c 0.391,0.033 0.719,0.329 0.815,0.691 v 12.371 c 0,0.526 0.426,0.956 0.916,0.956 h 26.339 c 0.491,0 0.916,-0.43 0.916,-0.956 v -12.11 c 0,-0.523 0.426,-0.952 0.916,-0.952 h 26.233 c 0.526,0 0.951,-0.427 0.951,-0.918 V 128.53 c 0.037,-0.493 -0.388,-0.921 -0.915,-0.921 z m -55.285,-0.983 c 0,0.523 -0.43,0.951 -0.92,0.951 H 669.773 c -0.977,0 -1.503,-0.264 -1.666,-0.623 -0.131,-0.592 0.163,-0.984 0.886,-1.51 L 791.16,50.086 c 0.854,-0.526 2.262,-0.429 2.262,1.246 v 75.294 z"
   id="path14" /><path
   style="fill:#0070d1;fill-opacity:1"
   d="m 865.015,142.743 h -4.318 v -1.478 h 10.285 v 1.478 h -4.23 v 12.902 h -1.736 v -12.902 z"
   id="path16" /><path
   style="fill:#0070d1;fill-opacity:1"
   d="m 879.955,154.067 h 0.035 l 4.024,-12.769 H 887 v 14.347 h -1.675 v -13.034 h -0.03 l -4.262,13.034 h -2.192 l -4.129,-13.034 h -0.031 v 13.034 h -1.635 v -14.38 h 2.945 z"
   id="path18" />
</svg>
