<?xml version="1.0" encoding="UTF-8" standalone="no"?>
<svg
   xmlns:dc="http://purl.org/dc/elements/1.1/"
   xmlns:cc="http://creativecommons.org/ns#"
   xmlns:rdf="http://www.w3.org/1999/02/22-rdf-syntax-ns#"
   xmlns:svg="http://www.w3.org/2000/svg"
   xmlns="http://www.w3.org/2000/svg"
   xmlns:sodipodi="http://sodipodi.sourceforge.net/DTD/sodipodi-0.dtd"
   xmlns:inkscape="http://www.inkscape.org/namespaces/inkscape"
   width="256"
   height="256"
   viewBox="0 0 67.733332 67.733335"
   version="1.1"
   id="svg8"
   inkscape:version="1.0 (4035a4fb49, 2020-05-01)"
   sodipodi:docname="magpiebusiness-icon.svg">
  <defs
     id="defs2">
    <clipPath
       clipPathUnits="userSpaceOnUse"
       id="clipPath848">
      <path
         d="M 0,0 H 595.276 V 841.89 H 0 Z"
         id="path846" />
    </clipPath>
    <clipPath
       clipPathUnits="userSpaceOnUse"
       id="clipPath868">
      <path
         d="M 0,0 H 595.276 V 841.89 H 0 Z"
         id="path866" />
    </clipPath>
    <clipPath
       clipPathUnits="userSpaceOnUse"
       id="clipPath892">
      <path
         d="M 0,0 H 595.276 V 841.89 H 0 Z"
         id="path890" />
    </clipPath>
    <clipPath
       clipPathUnits="userSpaceOnUse"
       id="clipPath912">
      <path
         d="M 0,0 H 595.276 V 841.89 H 0 Z"
         id="path910" />
    </clipPath>
    <clipPath
       clipPathUnits="userSpaceOnUse"
       id="clipPath932">
      <path
         d="M 0,0 H 595.276 V 841.89 H 0 Z"
         id="path930" />
    </clipPath>
    <clipPath
       clipPathUnits="userSpaceOnUse"
       id="clipPath952">
      <path
         d="M 0,0 H 595.276 V 841.89 H 0 Z"
         id="path950" />
    </clipPath>
    <clipPath
       clipPathUnits="userSpaceOnUse"
       id="clipPath980">
      <path
         d="M 0,0 H 595.276 V 841.89 H 0 Z"
         id="path978" />
    </clipPath>
    <clipPath
       clipPathUnits="userSpaceOnUse"
       id="clipPath996">
      <path
         d="M 0,0 H 595.276 V 841.89 H 0 Z"
         id="path994" />
    </clipPath>
    <clipPath
       clipPathUnits="userSpaceOnUse"
       id="clipPath1012">
      <path
         d="M 0,0 H 595.276 V 841.89 H 0 Z"
         id="path1010" />
    </clipPath>
    <clipPath
       clipPathUnits="userSpaceOnUse"
       id="clipPath1028">
      <path
         d="M 0,0 H 595.276 V 841.89 H 0 Z"
         id="path1026" />
    </clipPath>
    <clipPath
       clipPathUnits="userSpaceOnUse"
       id="clipPath1088">
      <path
         d="M 0,0 H 595.276 V 841.89 H 0 Z"
         id="path1086" />
    </clipPath>
    <clipPath
       clipPathUnits="userSpaceOnUse"
       id="clipPath1104">
      <path
         d="M 0,0 H 595.276 V 841.89 H 0 Z"
         id="path1102" />
    </clipPath>
    <clipPath
       clipPathUnits="userSpaceOnUse"
       id="clipPath1200">
      <path
         d="M 0,0 H 595.276 V 841.89 H 0 Z"
         id="path1198" />
    </clipPath>
    <clipPath
       clipPathUnits="userSpaceOnUse"
       id="clipPath1216">
      <path
         d="M 0,0 H 595.276 V 841.89 H 0 Z"
         id="path1214" />
    </clipPath>
    <clipPath
       clipPathUnits="userSpaceOnUse"
       id="clipPath1282">
      <path
         d="M 0,0 H 595.276 V 841.89 H 0 Z"
         id="path1280" />
    </clipPath>
    <clipPath
       clipPathUnits="userSpaceOnUse"
       id="clipPath1298">
      <path
         d="m 24,536.212 h 14.123 v 14.234 H 24 Z"
         id="path1296" />
    </clipPath>
    <clipPath
       clipPathUnits="userSpaceOnUse"
       id="clipPath1318">
      <path
         d="m 24,513.041 h 14.174 v 14.31 H 24 Z"
         id="path1316" />
    </clipPath>
    <clipPath
       clipPathUnits="userSpaceOnUse"
       id="clipPath1338">
      <path
         d="m 24,559.307 h 14.152 v 14.102 H 24 Z"
         id="path1336" />
    </clipPath>
    <clipPath
       clipPathUnits="userSpaceOnUse"
       id="clipPath1370">
      <path
         d="M 0,0 H 595.276 V 841.89 H 0 Z"
         id="path1368" />
    </clipPath>
    <clipPath
       clipPathUnits="userSpaceOnUse"
       id="clipPath1394">
      <path
         d="M 41.767,679.157 H 162.705 V 812.89 H 41.767 Z"
         id="path1392" />
    </clipPath>
    <clipPath
       clipPathUnits="userSpaceOnUse"
       id="clipPath1406">
      <path
         d="m 83.927,787.271 -5.431,-6.673 -3.541,-10.946 5.142,-9.468 12.14,-1.236 h 0.01 l 8.023,3.829 -0.66,5.431 -2.096,2.144 c 0.123,0.551 0.334,0.372 -0.04,1.521 v 0 l -8.109,13.876 -1.196,2.881 z"
         id="path1404" />
    </clipPath>
    <linearGradient
       x1="860"
       y1="690.85699"
       x2="1270"
       y2="832.28601"
       gradientUnits="userSpaceOnUse"
       gradientTransform="matrix(0.0815081,0,0,-0.0815081,12.379622,829.33601)"
       spreadMethod="pad"
       id="linearGradient1416">
      <stop
         style="stop-opacity:1;stop-color:#ffffff"
         offset="0"
         id="stop1412" />
      <stop
         style="stop-opacity:1;stop-color:#102027"
         offset="1"
         id="stop1414" />
    </linearGradient>
    <clipPath
       clipPathUnits="userSpaceOnUse"
       id="clipPath1426">
      <path
         d="m 70.83,795.847 -0.468,-1.631 -2.088,0.698 -5.944,1.283 c 1.446,-2.751 2.798,-4.809 4.662,-10.481 v 0 c 1.74,-5.639 2.547,-11.191 -2.214,-16.179 v 0 c -7.054,-10.093 -5.29,-23.36 -1.989,-34.15 v 0 c 0.081,-0.264 0.266,0.108 0.45,0.481 v 0 c 0.185,0.372 0.369,0.745 0.451,0.481 v 0 c 0.746,-2.367 1.524,-4.738 2.254,-7.107 v 0 c 0.388,0.855 0.775,1.708 1.165,2.563 v 0 c 6.579,-10.028 16.073,-19.226 27.826,-26.785 v 0 c 0.24,-3.192 0.628,-6.3 2.098,-8.73 v 0 L 86.621,680.154 c 1.586,-0.38 2.642,-0.8 4.258,-0.931 v 0 l 9.3,16.252 c 1.398,-0.212 2.12,2.336 2.905,5.475 v 0 c 1.428,-0.551 1.933,-1.166 5.36,-1.57 v 0 c 0.947,-2.726 1.764,-5.934 3.611,-8.211 v 0 l -3.37,-12.012 h 3.068 l 4.257,12.595 c 0.45,2.518 0.707,5.043 0.233,7.567 v 0 c -0.973,2.453 -2.416,4.6 -3.838,6.752 v 0 c 2.261,0.759 2.191,2.205 1.857,3.728 v 0 c 4.077,-2.253 6.961,-2.914 12.227,-6.751 v 0 c 4.948,-3.318 10.245,-6.098 15.49,-8.965 v 0 c 5.42,-4.91 10.976,-10.213 16.335,-14.926 v 0 h 4.088 c -0.971,2.016 -2.29,3.338 -3.426,5.022 v 0 c 0.175,0.251 0.44,0.059 0.688,-0.132 v 0 c 0.256,-0.199 0.495,-0.398 0.594,-0.101 v 0 c 0.31,0.931 -0.684,3.729 -2.913,5.593 v 0 l -4.421,4.428 c -0.435,1.142 -0.925,2.104 -1.515,2.789 v 0 l -19.561,21.54 c 1.483,-0.264 4.352,-2.252 4.421,-0.699 v 0 c 0.102,2.159 -1.003,4.786 -2.905,7.574 v 0 l -20.259,22.357 c -1.307,3.047 -1.531,5.64 -4.196,9.197 v 0 c -3.403,4.539 -6.214,7.685 -9.313,11.529 v 0 l 0.115,-1.863 c -1.598,-0.451 -0.59,-1.47 -0.815,-2.215 v 0 c -3.464,1.034 -3.705,-0.691 -4.194,-2.214 v 0 c -3.481,0.505 -7.522,-0.551 -11.413,-1.166 v 0 c -0.691,3.301 -2.075,6.464 -4.304,9.431 v 0 l 4.304,7.458 -1.863,-0.466 3.728,8.382 c 1.756,-0.04 2.454,0.815 2.796,1.981 v 0 l 1.866,-2.331 c -1.446,11.334 -7.653,16.126 -16.54,17.23 v 0 l -4.419,0.583 z"
         id="path1424" />
    </clipPath>
    <linearGradient
       x1="467.879"
       y1="926.46301"
       x2="1125.55"
       y2="1130.16"
       gradientUnits="userSpaceOnUse"
       gradientTransform="matrix(0.0815081,0,0,-0.0815081,12.379622,829.33601)"
       spreadMethod="pad"
       id="linearGradient1436">
      <stop
         style="stop-opacity:1;stop-color:#37474f"
         offset="0"
         id="stop1432" />
      <stop
         style="stop-opacity:1;stop-color:#102027"
         offset="1"
         id="stop1434" />
    </linearGradient>
    <clipPath
       clipPathUnits="userSpaceOnUse"
       id="clipPath1446">
      <path
         d="m 107.861,742.869 1.98,0.58 c 0.784,-6.477 2.083,-12.808 3.954,-18.976 v 0 c -0.155,-2.44 -0.38,-4.669 -0.69,-6.642 v 0 c 1.118,-1.919 2.243,-2.867 3.37,-6.169 v 0 c 4.598,-0.179 8.405,1.81 11.296,6.284 v 0 c -1.181,1.369 -1.414,3.117 -1.865,4.779 v 0 l 2.448,-3.03 c 1.008,-0.707 1.545,-0.148 2.097,0.35 v 0 l 1.747,-3.38 c 0.957,6.012 -3.557,12.312 -8.382,18.637 v 0 l -9.088,10.245 c -0.941,0.125 -1.773,0.142 -2.556,0.117 v 0 c -0.948,1.771 -1.78,2.447 -2.563,2.673 v 0 c -1.119,-1.499 -1.384,-3.519 -1.748,-5.468"
         id="path1444" />
    </clipPath>
    <linearGradient
       x1="1420.27"
       y1="979.25897"
       x2="1169.76"
       y2="1775.26"
       gradientUnits="userSpaceOnUse"
       gradientTransform="matrix(0.0815081,0,0,-0.0815081,12.379622,829.33601)"
       spreadMethod="pad"
       id="linearGradient1456">
      <stop
         style="stop-opacity:1;stop-color:#ffffff"
         offset="0"
         id="stop1452" />
      <stop
         style="stop-opacity:1;stop-color:#102027"
         offset="1"
         id="stop1454" />
    </linearGradient>
    <clipPath
       clipPathUnits="userSpaceOnUse"
       id="clipPath1466">
      <path
         d="m 80.142,749.516 c 1.54,-0.309 2.254,0.436 3.048,1.072 v 0 c -0.46,-0.908 -1.5,-1.692 -1.072,-2.795 v 0 l 2.803,-2.882 4.28,-4.039 7.163,-8.888 c 4.924,-4.528 4.582,-5.741 5.267,-7.66 v 0 c 2.688,-1.919 5.118,-5.15 8.071,-5.763 v 0 c 0.287,1.313 -2.493,3.472 -3.956,5.266 v 0 l 3.708,-2.959 c 0.954,-0.093 0.371,0.427 0.326,0.738 v 0 l -5.594,4.528 -1.981,5.679 -11.031,8.896 -1.809,3.704 c -2.711,2.246 -4.452,4.312 -4.202,6.012 v 0 c -0.219,0.926 0.138,2.331 -1.399,2.139 v 0 c -2.953,-0.934 -3.76,-0.166 -4.694,0.497 v 0 c -0.681,-1.679 -0.325,-2.861 1.072,-3.545"
         id="path1464" />
    </clipPath>
    <linearGradient
       x1="1010.15"
       y1="1098.46"
       x2="1256.63"
       y2="1540.9"
       gradientUnits="userSpaceOnUse"
       gradientTransform="matrix(0.0815081,0,0,-0.0815081,12.379622,829.33601)"
       spreadMethod="pad"
       id="linearGradient1476">
      <stop
         style="stop-opacity:1;stop-color:#ffffff"
         offset="0"
         id="stop1472" />
      <stop
         style="stop-opacity:1;stop-color:#102027"
         offset="1"
         id="stop1474" />
    </linearGradient>
    <clipPath
       clipPathUnits="userSpaceOnUse"
       id="clipPath1486">
      <path
         d="m 70.83,795.847 -0.468,-1.631 -2.088,0.698 -5.944,1.283 c 1.446,-2.751 3.908,-8.296 5.773,-13.968 v 0 c 1.219,-5.787 -0.815,-9.447 -3.1,-12.94 v 0 c 1.527,0.611 2.445,-0.057 3.431,-0.725 v 0 c 1.217,-0.824 2.538,-1.648 5.237,-0.069 v 0 c 0.188,-1.444 2.612,-2.703 4.561,-4 v 0 c 0.529,1.42 1.601,1.399 2.579,1.639 v 0 c -1.521,1.43 -1.165,2.85 -1.398,4.271 v 0 c 1.181,1.61 2.355,3.676 3.534,6.06 v 0 l -1.794,0.559 1.756,3.154 2.245,5.423 c 1.756,-0.04 3.619,0 3.961,1.165 v 0 l 0.701,-1.515 c -1.446,11.334 -7.653,16.126 -16.54,17.23 v 0 l -4.419,0.583 z"
         id="path1484" />
    </clipPath>
    <linearGradient
       x1="861.42902"
       y1="629.42902"
       x2="455.71399"
       y2="332.28601"
       gradientUnits="userSpaceOnUse"
       gradientTransform="matrix(0.0815081,0,0,-0.0815081,12.379622,829.33601)"
       spreadMethod="pad"
       id="linearGradient1496">
      <stop
         style="stop-opacity:1;stop-color:#37474f"
         offset="0"
         id="stop1492" />
      <stop
         style="stop-opacity:1;stop-color:#102027"
         offset="1"
         id="stop1494" />
    </linearGradient>
    <clipPath
       clipPathUnits="userSpaceOnUse"
       id="clipPath1506">
      <path
         d="M 41.767,679.157 H 162.705 V 812.89 H 41.767 Z"
         id="path1504" />
    </clipPath>
    <clipPath
       clipPathUnits="userSpaceOnUse"
       id="clipPath1538">
      <path
         d="m 52.146,804.991 4.389,-2.534 12.523,-8.38 2.649,-0.7 -0.265,1.452 -6.867,4.864 z"
         id="path1536" />
    </clipPath>
    <linearGradient
       x1="413.65799"
       y1="245.888"
       x2="672.76202"
       y2="379.733"
       gradientUnits="userSpaceOnUse"
       gradientTransform="matrix(0.0815081,0,0,-0.0815081,12.379622,829.33601)"
       spreadMethod="pad"
       id="linearGradient1548">
      <stop
         style="stop-opacity:1;stop-color:#37474f"
         offset="0"
         id="stop1544" />
      <stop
         style="stop-opacity:1;stop-color:#07070e"
         offset="1"
         id="stop1546" />
    </linearGradient>
    <clipPath
       clipPathUnits="userSpaceOnUse"
       id="clipPath1558">
      <path
         d="m 55.853,812.627 c 0.829,-0.28 1.639,-0.382 1.973,-0.863 v 0 c 5.126,-4.21 9.724,-10.106 13.135,-15.893 v 0 l 0.374,-2.058 -1.483,0.705 c -7.071,6.533 -12.718,8.158 -19.312,11.443 v 0 c 5.624,-5.506 13.15,-9.935 18.526,-15.893 v 0 c -0.086,1.28 -0.14,2.633 -0.327,3.705 v 0 c 1.011,-0.302 1.516,-0.971 3.086,-0.861 v 0 c 0.317,0.123 0.427,0.419 0.411,0.823 v 0 c -0.623,1.024 -0.692,1.676 -1.026,2.508 v 0 c -0.132,1.632 -0.156,3.294 -0.699,4.816 v 0 c 1.329,-0.379 2.866,-0.412 4.529,-0.249 v 0 c -5.127,4.748 -10.472,9.027 -16.468,12.026 v 0 c -0.186,0.01 -0.363,0.014 -0.532,0.014 v 0 c -0.746,0 -1.372,-0.091 -2.187,-0.223"
         id="path1556" />
    </clipPath>
    <linearGradient
       x1="686.26202"
       y1="329.60199"
       x2="498.246"
       y2="337.715"
       gradientUnits="userSpaceOnUse"
       gradientTransform="matrix(0.0815081,0,0,-0.0815081,12.379622,829.33601)"
       spreadMethod="pad"
       id="linearGradient1568">
      <stop
         style="stop-opacity:1;stop-color:#ffffff"
         offset="0"
         id="stop1564" />
      <stop
         style="stop-opacity:1;stop-color:#102027"
         offset="1"
         id="stop1566" />
    </linearGradient>
    <clipPath
       clipPathUnits="userSpaceOnUse"
       id="clipPath1578">
      <path
         d="M 0,0 H 595.276 V 841.89 H 0 Z"
         id="path1576" />
    </clipPath>
    <clipPath
       clipPathUnits="userSpaceOnUse"
       id="clipPath1594">
      <path
         d="M 0,0 H 595.276 V 841.89 H 0 Z"
         id="path1592" />
    </clipPath>
    <clipPath
       clipPathUnits="userSpaceOnUse"
       id="clipPath1610">
      <path
         d="M 0,0 H 595.276 V 841.89 H 0 Z"
         id="path1608" />
    </clipPath>
    <clipPath
       clipPathUnits="userSpaceOnUse"
       id="clipPath1626">
      <path
         d="M 0,0 H 595.276 V 841.89 H 0 Z"
         id="path1624" />
    </clipPath>
    <clipPath
       clipPathUnits="userSpaceOnUse"
       id="clipPath1698">
      <path
         d="M 0,0 H 595.276 V 841.89 H 0 Z"
         id="path1696" />
    </clipPath>
    <clipPath
       clipPathUnits="userSpaceOnUse"
       id="clipPath1714">
      <path
         d="M 0,0 H 595.276 V 841.89 H 0 Z"
         id="path1712" />
    </clipPath>
    <clipPath
       clipPathUnits="userSpaceOnUse"
       id="clipPath1730">
      <path
         d="M 0,0 H 595.276 V 841.89 H 0 Z"
         id="path1728" />
    </clipPath>
    <clipPath
       clipPathUnits="userSpaceOnUse"
       id="clipPath1746">
      <path
         d="M 0,0 H 595.276 V 841.89 H 0 Z"
         id="path1744" />
    </clipPath>
    <clipPath
       clipPathUnits="userSpaceOnUse"
       id="clipPath1762">
      <path
         d="M 0,0 H 595.276 V 841.89 H 0 Z"
         id="path1760" />
    </clipPath>
    <clipPath
       clipPathUnits="userSpaceOnUse"
       id="clipPath1778">
      <path
         d="M 0,0 H 595.276 V 841.89 H 0 Z"
         id="path1776" />
    </clipPath>
    <clipPath
       clipPathUnits="userSpaceOnUse"
       id="clipPath1826">
      <path
         d="M 0,0 H 595.276 V 841.89 H 0 Z"
         id="path1824" />
    </clipPath>
    <clipPath
       clipPathUnits="userSpaceOnUse"
       id="clipPath1870">
      <path
         d="M 0,0 H 595.276 V 841.89 H 0 Z"
         id="path1868" />
    </clipPath>
    <clipPath
       clipPathUnits="userSpaceOnUse"
       id="clipPath1930">
      <path
         d="M 0,0 H 595.276 V 841.89 H 0 Z"
         id="path1928" />
    </clipPath>
  </defs>
  <sodipodi:namedview
     fit-margin-bottom="0"
     fit-margin-right="0"
     fit-margin-left="0"
     fit-margin-top="0"
     id="base"
     pagecolor="#ffffff"
     bordercolor="#666666"
     borderopacity="1.0"
     inkscape:pageopacity="0.0"
     inkscape:pageshadow="2"
     inkscape:zoom="1.4"
     inkscape:cx="135.42157"
     inkscape:cy="202.15575"
     inkscape:document-units="px"
     inkscape:current-layer="layer1"
     inkscape:document-rotation="0"
     showgrid="false"
     units="px"
     borderlayer="true"
     inkscape:window-width="1920"
     inkscape:window-height="1017"
     inkscape:window-x="1912"
     inkscape:window-y="-8"
     inkscape:window-maximized="1" />
  <metadata
     id="metadata5">
    <rdf:RDF>
      <cc:Work
         rdf:about="">
        <dc:format>image/svg+xml</dc:format>
        <dc:type
           rdf:resource="http://purl.org/dc/dcmitype/StillImage" />
        <dc:title></dc:title>
      </cc:Work>
    </rdf:RDF>
  </metadata>
  <g
     transform="translate(-83.721329,-124.91804)"
     inkscape:label="Layer 1"
     inkscape:groupmode="layer"
     id="layer1">
    <g
       transform="matrix(0.44042082,0,0,-0.44042082,72.627856,487.34018)"
       id="g1388">
      <g
         clip-path="url(#clipPath1394)"
         id="g1390">
        <g
           transform="translate(162.068,738.3464)"
           id="g1396">
          <path
             id="path1398"
             style="fill:#df1e3d;fill-opacity:1;fill-rule:evenodd;stroke:none"
             d="m 0,0 c 0,-33.225 -26.933,-60.149 -60.149,-60.149 -33.225,0 -60.152,26.924 -60.152,60.149 0,33.217 26.927,60.149 60.152,60.149 C -26.933,60.149 0,33.217 0,0" />
        </g>
      </g>
    </g>
    <g
       transform="matrix(0.44042082,0,0,-0.44042082,72.627856,487.34018)"
       id="g1400">
      <g
         clip-path="url(#clipPath1406)"
         id="g1402">
        <g
           id="g1408">
          <g
             id="g1410">
            <path
               id="path1418"
               style="fill:url(#linearGradient1416);stroke:none"
               d="m 83.927,787.271 -5.431,-6.673 -3.541,-10.946 5.142,-9.468 12.14,-1.236 h 0.01 l 8.023,3.829 -0.66,5.431 -2.096,2.144 c 0.123,0.551 0.334,0.372 -0.04,1.521 v 0 l -8.109,13.876 -1.196,2.881 z" />
          </g>
        </g>
      </g>
    </g>
    <g
       transform="matrix(0.44042082,0,0,-0.44042082,72.627856,487.34018)"
       id="g1420">
      <g
         clip-path="url(#clipPath1426)"
         id="g1422">
        <g
           id="g1428">
          <g
             id="g1430">
            <path
               id="path1438"
               style="fill:url(#linearGradient1436);stroke:none"
               d="m 70.83,795.847 -0.468,-1.631 -2.088,0.698 -5.944,1.283 c 1.446,-2.751 2.798,-4.809 4.662,-10.481 v 0 c 1.74,-5.639 2.547,-11.191 -2.214,-16.179 v 0 c -7.054,-10.093 -5.29,-23.36 -1.989,-34.15 v 0 c 0.081,-0.264 0.266,0.108 0.45,0.481 v 0 c 0.185,0.372 0.369,0.745 0.451,0.481 v 0 c 0.746,-2.367 1.524,-4.738 2.254,-7.107 v 0 c 0.388,0.855 0.775,1.708 1.165,2.563 v 0 c 6.579,-10.028 16.073,-19.226 27.826,-26.785 v 0 c 0.24,-3.192 0.628,-6.3 2.098,-8.73 v 0 L 86.621,680.154 c 1.586,-0.38 2.642,-0.8 4.258,-0.931 v 0 l 9.3,16.252 c 1.398,-0.212 2.12,2.336 2.905,5.475 v 0 c 1.428,-0.551 1.933,-1.166 5.36,-1.57 v 0 c 0.947,-2.726 1.764,-5.934 3.611,-8.211 v 0 l -3.37,-12.012 h 3.068 l 4.257,12.595 c 0.45,2.518 0.707,5.043 0.233,7.567 v 0 c -0.973,2.453 -2.416,4.6 -3.838,6.752 v 0 c 2.261,0.759 2.191,2.205 1.857,3.728 v 0 c 4.077,-2.253 6.961,-2.914 12.227,-6.751 v 0 c 4.948,-3.318 10.245,-6.098 15.49,-8.965 v 0 c 5.42,-4.91 10.976,-10.213 16.335,-14.926 v 0 h 4.088 c -0.971,2.016 -2.29,3.338 -3.426,5.022 v 0 c 0.175,0.251 0.44,0.059 0.688,-0.132 v 0 c 0.256,-0.199 0.495,-0.398 0.594,-0.101 v 0 c 0.31,0.931 -0.684,3.729 -2.913,5.593 v 0 l -4.421,4.428 c -0.435,1.142 -0.925,2.104 -1.515,2.789 v 0 l -19.561,21.54 c 1.483,-0.264 4.352,-2.252 4.421,-0.699 v 0 c 0.102,2.159 -1.003,4.786 -2.905,7.574 v 0 l -20.259,22.357 c -1.307,3.047 -1.531,5.64 -4.196,9.197 v 0 c -3.403,4.539 -6.214,7.685 -9.313,11.529 v 0 l 0.115,-1.863 c -1.598,-0.451 -0.59,-1.47 -0.815,-2.215 v 0 c -3.464,1.034 -3.705,-0.691 -4.194,-2.214 v 0 c -3.481,0.505 -7.522,-0.551 -11.413,-1.166 v 0 c -0.691,3.301 -2.075,6.464 -4.304,9.431 v 0 l 4.304,7.458 -1.863,-0.466 3.728,8.382 c 1.756,-0.04 2.454,0.815 2.796,1.981 v 0 l 1.866,-2.331 c -1.446,11.334 -7.653,16.126 -16.54,17.23 v 0 l -4.419,0.583 z" />
          </g>
        </g>
      </g>
    </g>
    <g
       transform="matrix(0.44042082,0,0,-0.44042082,72.627856,487.34018)"
       id="g1440">
      <g
         clip-path="url(#clipPath1446)"
         id="g1442">
        <g
           id="g1448">
          <g
             id="g1450">
            <path
               id="path1458"
               style="fill:url(#linearGradient1456);stroke:none"
               d="m 107.861,742.869 1.98,0.58 c 0.784,-6.477 2.083,-12.808 3.954,-18.976 v 0 c -0.155,-2.44 -0.38,-4.669 -0.69,-6.642 v 0 c 1.118,-1.919 2.243,-2.867 3.37,-6.169 v 0 c 4.598,-0.179 8.405,1.81 11.296,6.284 v 0 c -1.181,1.369 -1.414,3.117 -1.865,4.779 v 0 l 2.448,-3.03 c 1.008,-0.707 1.545,-0.148 2.097,0.35 v 0 l 1.747,-3.38 c 0.957,6.012 -3.557,12.312 -8.382,18.637 v 0 l -9.088,10.245 c -0.941,0.125 -1.773,0.142 -2.556,0.117 v 0 c -0.948,1.771 -1.78,2.447 -2.563,2.673 v 0 c -1.119,-1.499 -1.384,-3.519 -1.748,-5.468" />
          </g>
        </g>
      </g>
    </g>
    <g
       transform="matrix(0.44042082,0,0,-0.44042082,72.627856,487.34018)"
       id="g1460">
      <g
         clip-path="url(#clipPath1466)"
         id="g1462">
        <g
           id="g1468">
          <g
             id="g1470">
            <path
               id="path1478"
               style="fill:url(#linearGradient1476);stroke:none"
               d="m 80.142,749.516 c 1.54,-0.309 2.254,0.436 3.048,1.072 v 0 c -0.46,-0.908 -1.5,-1.692 -1.072,-2.795 v 0 l 2.803,-2.882 4.28,-4.039 7.163,-8.888 c 4.924,-4.528 4.582,-5.741 5.267,-7.66 v 0 c 2.688,-1.919 5.118,-5.15 8.071,-5.763 v 0 c 0.287,1.313 -2.493,3.472 -3.956,5.266 v 0 l 3.708,-2.959 c 0.954,-0.093 0.371,0.427 0.326,0.738 v 0 l -5.594,4.528 -1.981,5.679 -11.031,8.896 -1.809,3.704 c -2.711,2.246 -4.452,4.312 -4.202,6.012 v 0 c -0.219,0.926 0.138,2.331 -1.399,2.139 v 0 c -2.953,-0.934 -3.76,-0.166 -4.694,0.497 v 0 c -0.681,-1.679 -0.325,-2.861 1.072,-3.545" />
          </g>
        </g>
      </g>
    </g>
    <g
       transform="matrix(0.44042082,0,0,-0.44042082,72.627856,487.34018)"
       id="g1480">
      <g
         clip-path="url(#clipPath1486)"
         id="g1482">
        <g
           id="g1488">
          <g
             id="g1490">
            <path
               id="path1498"
               style="fill:url(#linearGradient1496);stroke:none"
               d="m 70.83,795.847 -0.468,-1.631 -2.088,0.698 -5.944,1.283 c 1.446,-2.751 3.908,-8.296 5.773,-13.968 v 0 c 1.219,-5.787 -0.815,-9.447 -3.1,-12.94 v 0 c 1.527,0.611 2.445,-0.057 3.431,-0.725 v 0 c 1.217,-0.824 2.538,-1.648 5.237,-0.069 v 0 c 0.188,-1.444 2.612,-2.703 4.561,-4 v 0 c 0.529,1.42 1.601,1.399 2.579,1.639 v 0 c -1.521,1.43 -1.165,2.85 -1.398,4.271 v 0 c 1.181,1.61 2.355,3.676 3.534,6.06 v 0 l -1.794,0.559 1.756,3.154 2.245,5.423 c 1.756,-0.04 3.619,0 3.961,1.165 v 0 l 0.701,-1.515 c -1.446,11.334 -7.653,16.126 -16.54,17.23 v 0 l -4.419,0.583 z" />
          </g>
        </g>
      </g>
    </g>
    <g
       transform="matrix(0.44042082,0,0,-0.44042082,72.627856,487.34018)"
       id="g1500">
      <g
         clip-path="url(#clipPath1506)"
         id="g1502">
        <g
           transform="translate(75.9168,794.5741)"
           id="g1508">
          <path
             id="path1510"
             style="fill:#e54744;fill-opacity:1;fill-rule:nonzero;stroke:none"
             d="M 0,0 C 0,0 0.965,0.909 2.058,0.722 2.929,0.581 4.132,-0.072 4.079,-0.794 3.985,-1.983 3.031,-2.961 1.499,-2.534 -0.318,-2.021 0,0 0,0" />
        </g>
        <g
           transform="translate(75.9168,794.5741)"
           id="g1512">
          <path
             id="path1514"
             style="fill:none;stroke:#e54744;stroke-width:0.171;stroke-linecap:butt;stroke-linejoin:miter;stroke-miterlimit:4;stroke-dasharray:none;stroke-opacity:1"
             d="M 0,0 C 0,0 0.965,0.909 2.058,0.722 2.929,0.581 4.132,-0.072 4.079,-0.794 3.985,-1.983 3.031,-2.961 1.499,-2.534 -0.318,-2.021 0,0 0,0 Z" />
        </g>
        <g
           transform="translate(78.154,794.3792)"
           id="g1516">
          <path
             id="path1518"
             style="fill:#000000;fill-opacity:1;fill-rule:nonzero;stroke:none"
             d="m 0,0 c 0.459,-0.35 0.28,-1.213 -0.241,-1.213 -0.644,0 -0.791,0.949 -0.403,1.189 0.093,-0.217 0.093,-0.286 0.039,-0.551 C -0.27,-0.35 -0.171,-0.211 0,0" />
        </g>
        <g
           transform="translate(78.154,794.3792)"
           id="g1520">
          <path
             id="path1522"
             style="fill:none;stroke:#000000;stroke-width:0.077;stroke-linecap:butt;stroke-linejoin:miter;stroke-miterlimit:4;stroke-dasharray:none;stroke-opacity:1"
             d="m 0,0 c 0.459,-0.35 0.28,-1.213 -0.241,-1.213 -0.644,0 -0.791,0.949 -0.403,1.189 0.093,-0.217 0.093,-0.286 0.039,-0.551 C -0.27,-0.35 -0.171,-0.211 0,0 Z" />
        </g>
        <g
           transform="translate(79.041,794.9082)"
           id="g1524">
          <path
             id="path1526"
             style="fill:#ffffff;fill-opacity:1;fill-rule:nonzero;stroke:none"
             d="m 0,0 c -0.569,0.255 -1.136,0.465 -1.71,0.139 -0.07,-0.179 -0.279,-0.342 0.008,-0.575 l 0.264,-0.59 0.543,0.535 C -0.561,-0.406 -0.249,-0.265 0,0" />
        </g>
        <g
           transform="translate(79.041,794.9082)"
           id="g1528">
          <path
             id="path1530"
             style="fill:none;stroke:#ffffff;stroke-width:0.077;stroke-linecap:butt;stroke-linejoin:miter;stroke-miterlimit:4;stroke-dasharray:none;stroke-opacity:1"
             d="m 0,0 c -0.569,0.255 -1.136,0.465 -1.71,0.139 -0.07,-0.179 -0.279,-0.342 0.008,-0.575 l 0.264,-0.59 0.543,0.535 C -0.561,-0.406 -0.249,-0.265 0,0 Z" />
        </g>
      </g>
    </g>
    <g
       transform="matrix(0.44042082,0,0,-0.44042082,72.627856,487.34018)"
       id="g1532">
      <g
         clip-path="url(#clipPath1538)"
         id="g1534">
        <g
           id="g1540">
          <g
             id="g1542">
            <path
               id="path1550"
               style="fill:url(#linearGradient1548);stroke:none"
               d="m 52.146,804.991 4.389,-2.534 12.523,-8.38 2.649,-0.7 -0.265,1.452 -6.867,4.864 z" />
          </g>
        </g>
      </g>
    </g>
    <g
       transform="matrix(0.44042082,0,0,-0.44042082,72.627856,487.34018)"
       id="g1552">
      <g
         clip-path="url(#clipPath1558)"
         id="g1554">
        <g
           id="g1560">
          <g
             id="g1562">
            <path
               id="path1570"
               style="fill:url(#linearGradient1568);stroke:none"
               d="m 55.853,812.627 c 0.829,-0.28 1.639,-0.382 1.973,-0.863 v 0 c 5.126,-4.21 9.724,-10.106 13.135,-15.893 v 0 l 0.374,-2.058 -1.483,0.705 c -7.071,6.533 -12.718,8.158 -19.312,11.443 v 0 c 5.624,-5.506 13.15,-9.935 18.526,-15.893 v 0 c -0.086,1.28 -0.14,2.633 -0.327,3.705 v 0 c 1.011,-0.302 1.516,-0.971 3.086,-0.861 v 0 c 0.317,0.123 0.427,0.419 0.411,0.823 v 0 c -0.623,1.024 -0.692,1.676 -1.026,2.508 v 0 c -0.132,1.632 -0.156,3.294 -0.699,4.816 v 0 c 1.329,-0.379 2.866,-0.412 4.529,-0.249 v 0 c -5.127,4.748 -10.472,9.027 -16.468,12.026 v 0 c -0.186,0.01 -0.363,0.014 -0.532,0.014 v 0 c -0.746,0 -1.372,-0.091 -2.187,-0.223" />
          </g>
        </g>
      </g>
    </g>
  </g>
</svg>
